# xmcd
#
# Track frame offsets: 
#        150
#        14785
#        27660
#        40447
#        56742
#        71962
#        83537
#        97462
#        110832
#        122932
#        135012
#        148620
#
# Disc length: 2150 seconds
#
# Revision: 0
# Processed by: cddbd v1.4PL0 Copyright (c) Steve Scherf et al.
# Submitted via: ExactAudioCopy v0.90b3
#
DISCID=bb08640c
DTITLE=Conway Twitty - 36 All-Time Greatest Hits - Disc 3
DYEAR=1900
DGENRE=Country
TTITLE0=I Still Believe In Waltzes
TTITLE1=I Couldn't See You Leavin'
TTITLE2=I May Never Get To Heaven
TTITLE3=I Want To Know You (Before We Make Love)
TTITLE4=(I Wish I Was) Still In Your Dreams
TTITLE5=I Love You More Today
TTITLE6=That's When She Started To Stop Loving You
TTITLE7=There's A Honky Tonk Angel (Who'll Take Me Back In)
TTITLE8=To See My Angel Cry
TTITLE9=Your Love Had Taken Me That High
TTITLE10=You've Never Been This Far Before
TTITLE11=Tight Fittin' Jeans
EXTD=
EXTT0=
EXTT1=
EXTT2=
EXTT3=
EXTT4=
EXTT5=
EXTT6=
EXTT7=
EXTT8=
EXTT9=
EXTT10=
EXTT11=
PLAYORDER=
